<svg xmlns="http://www.w3.org/2000/svg" viewBox="0 0 1280 320" width="1280" height="320" role="img" aria-label="nazsam — Cybersecurity, Cloud Security, DevSecOps, AI Security" font-family="'Segoe UI', system-ui, sans-serif">
  <defs>
    <linearGradient id="bg" x1="0" y1="0" x2="1" y2="1">
      <stop offset="0" stop-color="#132C5E"/>
      <stop offset="0.5" stop-color="#1E3A8A"/>
      <stop offset="1" stop-color="#2B50E4"/>
    </linearGradient>
    <radialGradient id="glow" cx="0.82" cy="0.3" r="0.6">
      <stop offset="0" stop-color="#22D3EE" stop-opacity="0.35"/>
      <stop offset="1" stop-color="#22D3EE" stop-opacity="0"/>
    </radialGradient>
    <linearGradient id="rc" x1="0" y1="0" x2="1" y2="1">
      <stop offset="0" stop-color="#2B50E4"/>
      <stop offset="1" stop-color="#22D3EE"/>
    </linearGradient>
  </defs>

  <rect width="1280" height="320" fill="url(#bg)"/>
  <rect width="1280" height="320" fill="url(#glow)"/>
  
  <circle cx="1120" cy="70" r="47.6" fill="#22D3EE" opacity="0.16"/>
  <circle cx="1120" cy="70" r="28.0" fill="#A5F3FC"/>
  <circle cx="1120" cy="70" r="28.0" fill="none" stroke="#22D3EE" stroke-opacity="0.55" stroke-width="1.5"/>
  <path d="M1030.4,110.32 L1031.7,113.5 L1034.88,114.8 L1031.7,116.1 L1030.4,119.28 L1029.1,116.1 L1025.92,114.8 L1029.1,113.5 Z" fill="#22D3EE" opacity="0.8"/>
  <path d="M1192.8,16.520000000000003 L1193.7,18.7 L1195.8799999999999,19.6 L1193.7,20.5 L1192.8,22.68 L1191.9,20.5 L1189.72,19.6 L1191.9,18.7 Z" fill="#22D3EE" opacity="0.6"/>
  <path d="M1075.2,0.28000000000001135 L1076.0,2.0 L1077.72,2.8000000000000114 L1076.0,3.6 L1075.2,5.320000000000011 L1074.4,3.6 L1072.68,2.8000000000000114 L1074.4,2.0 Z" fill="#22D3EE" opacity="0.5"/>

  <g stroke="#22D3EE" stroke-opacity="0.16" fill="none" stroke-width="2">
    <path d="M1050,40 l34,20 l0,40 l-34,20 l-34,-20 l0,-40 Z"/>
    <path d="M1140,95 l34,20 l0,40 l-34,20 l-34,-20 l0,-40 Z"/>
    <path d="M1050,150 l34,20 l0,40 l-34,20 l-34,-20 l0,-40 Z"/>
    <path d="M1155,205 l34,20 l0,40 l-34,20 l-34,-20 l0,-40 Z"/>
  </g>

  <g transform="translate(70,86) scale(0.92)">
    <path d="M56,4 L112,24 L112,80 C112,122 86,146 56,158 C26,146 0,122 0,80 L0,24 Z" fill="#132C5E" stroke="url(#rc)" stroke-width="6"/>
  <rect x="26" y="72" width="20" height="12" fill="#F2F7FF"/>
  <path d="M32,84 L80,84 L90,104 L22,104 Z" fill="#F2F7FF"/>
  <path d="M28,104 L84,104 L84,118 L28,118 Z" fill="#2B50E4"/>
  <path d="M88,44 l4,14 l14,4 l-14,4 l-4,14 l-4,-14 l-14,-4 l14,-4 Z" fill="#A5F3FC"/>
  </g>

  <text x="240" y="132" fill="#F2F7FF" font-size="68" font-weight="800" font-family="'Consolas','SF Mono',monospace">naz<tspan fill="#22D3EE">sam</tspan></text>
  <text x="243" y="180" fill="#F2F7FF" font-size="24" letter-spacing="0.5">Cybersecurity &#183; Cloud Security &#183; DevSecOps &#183; AI Security</text>
  <rect x="243" y="198" width="470" height="3" rx="1.5" fill="#22D3EE"/>
  <text x="243" y="238" fill="#8AA0C6" font-size="18" letter-spacing="1">S. Naz  &#183;  CISSP &#183; CISM &#183; CISA &#183; CRISC &#183; ISO 27001 LA  &#183;  Ontario, Canada</text>
</svg>
